;TYPE=PLATED
;Layer: PTH_Through_Via
;EasyEDA Pro v3.2.69, 2026-02-19 03:55:46
;Gerber Generator version 0.3
M48
METRIC,LZ,0000.00000
;Hole size 1 = 0.30500 METRIC
T01C0.30500
%
G05
G90
T01
X8.96981Y-36.08915
X8.83884Y-28.7846
X8.83884Y-20.846
X16.63208Y-22.58459
X16.63208Y-30.47344
X16.41422Y-14.49288
X30.01446Y13.78716
X25.82492Y-12.22486
X-19.84104Y-11.66086
X30.18356Y-7.45962
X28.64346Y-7.45962
X28.64346Y-8.30175
X28.64346Y-9.14364
X28.64346Y-9.99429
X29.39108Y-9.53988
X29.39108Y-8.71186
X29.39108Y-10.38487
X10.77803Y-13.50228
X-3.08556Y-5.01285
X-18.88557Y-11.61285
X-15.38592Y-25.98008
X2.94206Y-13.50228
X-7.28556Y3.58716
X-12.26759Y-28.96389
X-12.26759Y-30.26387
X-9.09767Y-31.57184
X-19.15256Y-29.00607
X-19.15256Y-30.77855
X-19.15256Y-32.55102
X6.35074Y-30.7692
X6.36344Y-26.61884
X4.58544Y-19.25284
X-0.11356Y-28.52384
X0.64844Y-29.28584
X3.09446Y-32.05698
X-0.72316Y-13.49616
X-27.48557Y1.68716
X-26.78557Y0.98716
X33.84245Y-28.65846
X31.61744Y-28.65846
X-20.50121Y-27.9321
X-28.38556Y-2.51284
X-29.48557Y-3.61285
X-29.48557Y-6.91285
X-22.17251Y-26.31714
X-28.78557Y-7.51285
X33.84878Y-15.48348
X-17.35866Y-26.18196
X-5.19356Y-21.53884
X-3.66956Y-20.90384
X-6.77344Y-22.31608
X-6.46356Y-24.07884
X-13.13556Y-12.96285
X1.11445Y-14.11285
X-24.18369Y-23.31286
X-25.28557Y-38.81286
X-27.38557Y-35.31286
X-16.88556Y-10.81285
X-33.08557Y-29.85973
X-32.98557Y-36.41382
X-8.62256Y-24.96784
X-6.54777Y-25.60284
X-9.16702Y-23.01224
X-8.17044Y-20.21824
X-27.18557Y-1.51284
X-18.58557Y-10.25425
X-17.88556Y8.98716
X-21.58557Y9.48716
X-1.75997Y6.78716
X0.74762Y3.32172
X27.61001Y12.82896
X28.31446Y12.78716
X27.91001Y12.19564
X27.59194Y11.61594
X28.34707Y11.61594
X-37.87066Y-8.96737
X-3.19578Y-31.93132
X15.62174Y-10.2333
X15.62174Y-11.1239
X15.52268Y-12.11544
X16.41422Y-11.62014
X16.41422Y-10.71256
X17.19667Y-11.1239
X17.19667Y-10.069
X16.41422Y-9.63894
X-9.07996Y-21.34072
X-8.29987Y-22.79086
X-37.87066Y-24.1017
X-29.2457Y-16.53835
X10.96592Y-17.36562
X-1.25275Y-5.10751
X6.8054Y-5.18124
X7.3007Y-5.87466
X11.00444Y-29.9609
X-3.99214Y-28.26222
X-21.38557Y-26.01286
X-19.88651Y-26.41004
X-29.18303Y-19.61435
X30.90741Y-15.91527
X-18.98463Y-26.51192
X5.03872Y-10.07756
X38.0093Y-1.87162
X-24.68557Y-32.01286
X-21.52576Y-34.20582
X-1.8912Y-18.41285
X-30.0066Y-24.1017
X-16.37464Y-31.92744
X22.06064Y-18.6534
X22.06064Y-19.32096
X22.06064Y-19.98853
X22.06064Y-20.6561
X22.80846Y-18.66238
X22.80846Y-19.32994
X23.54654Y-18.6534
X23.54654Y-19.32096
X23.54654Y-19.98853
X23.54654Y-20.6561
X22.31464Y-26.68084
X22.31464Y-27.34841
X22.31464Y-28.01597
X22.31464Y-28.68354
X23.06246Y-27.35738
X23.06246Y-26.68982
X23.80054Y-26.68084
X23.80054Y-27.34841
X23.80054Y-28.01597
X23.80054Y-28.68354
X22.31464Y-34.69463
X22.31464Y-35.3622
X22.31464Y-36.02976
X22.31464Y-36.69733
X23.06246Y-35.37118
X23.06246Y-34.70361
X23.80054Y-34.69463
X23.80054Y-35.3622
X23.80054Y-36.02976
X23.80054Y-36.69733
X18.79166Y-14.29476
X18.79166Y-22.1205
X18.89072Y-30.14436
X-26.67688Y-23.60922
X-26.67688Y-18.34398
X-23.11072Y-17.46468
X28.56812Y-18.25716
X28.56812Y-18.96836
X28.56812Y-19.67956
X28.56812Y-20.39076
X28.82212Y-26.2846
X28.82212Y-26.9958
X28.82212Y-27.707
X28.82212Y-28.4182
X28.82212Y-34.29839
X28.06012Y-35.00959
X28.82212Y-35.00959
X28.82212Y-35.72079
X28.06012Y-36.43199
X28.82212Y-36.43199
X-6.0724Y-17.46468
X-8.88383Y-17.46468
X-11.42164Y-17.46468
X-23.18557Y-12.61285
X-23.78557Y-13.21285
X-25.11781Y-13.85167
X-24.49121Y-14.51285
X-23.86912Y-20.3964
X-24.55714Y-20.78602
X-25.24675Y-21.17404
X-25.88557Y-21.61285
X-8.69954Y-18.95058
X-4.55287Y-19.65474
X32.36288Y-39.05976
X31.86758Y-39.65412
X31.27322Y-40.24848
X30.46429Y-40.24848
X30.87698Y-39.55506
X31.5704Y-38.86164
X29.88638Y-39.55506
X29.39108Y-40.24848
X30.48074Y-38.76258
X29.74395Y-38.148
X29.29202Y-38.86164
X29.88638Y-24.99324
X29.88638Y-25.79585
X30.67886Y-25.98384
X31.45206Y-25.98384
X32.25354Y-25.98384
X31.66946Y-23.6064
X31.66946Y-24.4127
X31.66946Y-25.29042
X30.28262Y-23.80452
X-4.28932Y-2.90286
X-28.45996Y3.23886
X-37.27482Y3.83298
X-24.20038Y8.38998
X-24.20038Y13.0458
X-26.875Y-4.48782
X-26.9274Y-11.07574
X-25.68628Y-8.2521
X-24.82017Y-8.2521
X-25.58722Y-9.2427
X-24.69568Y-9.2427
X-25.19098Y-10.03518
X-33.61108Y-9.63894
X-32.8186Y-10.13424
X-32.12518Y-9.53988
X-47.28136Y14.30083
X-31.23364Y-10.13424
X-51.93718Y-32.12556
X-51.93718Y-26.22028
X-30.44116Y-9.63894
X-51.93718Y-20.35184
X-31.72894Y-4.68594
X-51.93718Y-14.46219
X-30.7583Y-4.68594
X-51.93718Y-8.61498
X-33.54806Y-4.68594
X-51.93718Y-2.73593
X-35.49322Y0.86142
X-51.93718Y3.12189
X-36.18664Y-0.03012
X-51.93718Y8.99032
X-18.75323Y-13.18714
X-16.83315Y-13.18714
X-20.83234Y-14.29476
X-39.05938Y10.76742
X-8.25172Y-21.82332
X-18.7952Y-15.8931
X-16.83187Y-15.89192
X18.39542Y-12.80886
X28.1033Y-28.09966
X-12.26018Y-15.87093
X5.91386Y-15.87972
X6.50822Y-23.30922
X7.59788Y-22.21956
X7.59788Y-23.85796
X8.98472Y-22.6158
X8.98472Y-23.85796
X-21.03046Y-37.57386
X-20.33704Y-38.56446
X-19.9408Y-37.57386
X-19.24738Y-38.56446
X-18.85114Y-37.27668
X-18.75208Y-36.18702
X-15.87934Y9.87588
X-15.4831Y9.0834
X-14.78968Y9.97494
X-14.39344Y9.18246
X-13.79908Y9.87588
X-13.10566Y9.0834
X-12.80848Y9.87588
X7.69694Y-29.0547
X5.22044Y-31.13496
X-21.32764Y4.52664
X-18.9502Y4.52664
X-22.71448Y1.45578
X-15.18592Y4.42758
X-18.65302Y1.55484
X-16.77088Y4.22946
X-15.28498Y0.86142
X-13.0066Y4.6257
X-12.70942Y1.95108
X-12.80848Y-0.72354
X-16.28341Y-1.30628
X-18.55396Y-0.52542
X-20.63422Y-0.03012
X-22.51636Y-0.8226
X-21.62482Y-2.8038
X-17.86054Y-2.90286
X-16.27558Y-3.89346
X-14.39344Y-3.99252
X-12.61036Y-3.39816
X-13.60096Y-5.47842
X-15.9784Y-5.47842
X-18.55396Y-5.87466
X-21.22858Y-5.7756
X-22.51636Y-4.58688
X-19.64362Y2.94168
X-16.86994Y2.1492
X-14.09626Y2.84262
X-21.922Y3.04074
X-14.39344Y-1.71414
X-19.64362Y-2.11038
X-19.64362Y-4.48782
X-10.0348Y-18.70107
X-23.9032Y0.38715
X-9.78556Y8.38716
X-6.87522Y7.86157
M30