G04 Layer: BottomSolderMaskLayer*
G04 EasyEDA Pro v3.2.69, 2026-02-19 03:55:46*
G04 Gerber Generator version 0.3*
G04 Scale: 100 percent, Rotated: No, Reflected: No*
G04 Dimensions in millimeters*
G04 Leading zeros omitted, absolute positions, 4 integers and 5 decimals*
G04 Generated by one-click*
%FSLAX45Y45*%
%MOMM*%
%AMRoundRect*1,1,$1,$2,$3*1,1,$1,$4,$5*1,1,$1,0-$2,0-$3*1,1,$1,0-$4,0-$5*20,1,$1,$2,$3,$4,$5,0*20,1,$1,$4,$5,0-$2,0-$3,0*20,1,$1,0-$2,0-$3,0-$4,0-$5,0*20,1,$1,0-$4,0-$5,$2,$3,0*4,1,4,$2,$3,$4,$5,0-$2,0-$3,0-$4,0-$5,$2,$3,0*%
%ADD10O,1.102X1.902*%
%ADD11O,1.102X2.102*%
%ADD12C,2.3*%
%ADD13O,2.702X1.902*%
%ADD14RoundRect,0.102X-1.3X-0.9X-1.3X0.9*%
%ADD15C,2.6005*%
%ADD16C,2.602*%
%ADD17RoundRect,0.102X-1.25X-1.25X-1.25X1.25*%
%ADD18C,2.102*%
%ADD19C,2.302*%
%ADD20RoundRect,0.102X-0.8X0.8X0.8X0.8*%
%ADD21C,1.702*%
%ADD22RoundRect,0.102X-0.85X0.85X0.85X0.85*%
%ADD23C,1.802*%
G75*


G04 Pad Start*
G54D10*
G01X511022Y1404538D03*
G01X-352984Y1404538D03*
G54D11*
G01X-352984Y986530D03*
G01X511022Y986530D03*
G54D12*
G01X3610524Y1147024D03*
G01X3991524Y1147024D03*
G54D13*
G01X4229917Y-6012D03*
G01X4230908Y248013D03*
G54D14*
G01X4229917Y-260012D03*
G54D16*
G01X4116944Y-1989830D03*
G01X4116944Y-2489832D03*
G54D17*
G01X4116944Y-2989831D03*
G54D18*
G01X-1582520Y-3712859D03*
G01X-1201520Y-3712859D03*
G01X-820520Y-3712859D03*
G01X-439520Y-3712859D03*
G01X-58520Y-3712859D03*
G54D19*
G01X2144441Y-1112390D03*
G01X1394455Y-1112390D03*
G54D20*
G01X-4818545Y968729D03*
G54D21*
G01X-4564545Y968703D03*
G01X-4310545Y968703D03*
G54D20*
G01X-4822558Y302886D03*
G54D21*
G01X-4568558Y302861D03*
G01X-4314558Y302861D03*
G54D20*
G01X-4822558Y-362956D03*
G54D21*
G01X-4568558Y-362981D03*
G01X-4314558Y-362981D03*
G54D20*
G01X-4822558Y-1028798D03*
G54D21*
G01X-4568558Y-1028824D03*
G01X-4314558Y-1028824D03*
G54D20*
G01X-4822558Y-1694641D03*
G54D21*
G01X-4568558Y-1694666D03*
G01X-4314558Y-1694666D03*
G54D20*
G01X-4822558Y-2360483D03*
G54D21*
G01X-4568558Y-2360508D03*
G01X-4314558Y-2360508D03*
G54D20*
G01X-4822558Y-3026325D03*
G54D21*
G01X-4568558Y-3026351D03*
G01X-4314558Y-3026351D03*
G54D20*
G01X-4822558Y-3692168D03*
G54D21*
G01X-4568558Y-3692193D03*
G01X-4314558Y-3692193D03*
G54D19*
G01X3196852Y-516407D03*
G01X3196852Y233579D03*
G54D12*
G01X4127828Y-1334117D03*
G01X4127828Y-953117D03*
G54D22*
G01X-728475Y1388716D03*
G54D23*
G01X-982475Y1388716D03*
G01X-1236475Y1388716D03*
G01X-1490475Y1388716D03*
G04 Pad End*

M02*

